<!DOCTYPE svg PUBLIC "-//W3C//DTD SVG 1.1//EN" "http://www.w3.org/Graphics/SVG/1.1/DTD/svg11.dtd">
<!-- Uploaded to: SVG Repo, www.svgrepo.com, Transformed by: SVG Repo Mixer Tools -->
<svg width="800px" height="800px" viewBox="0 0 48.000015 48.000015" id="svg5" version="1.1" xml:space="preserve" xmlns="http://www.w3.org/2000/svg" xmlns:svg="http://www.w3.org/2000/svg" fill="#000000">
<g id="SVGRepo_bgCarrier" stroke-width="0"/>
<g id="SVGRepo_tracerCarrier" stroke-linecap="round" stroke-linejoin="round"/>
<g id="SVGRepo_iconCarrier"> <defs id="defs2"/> <g id="layer1" transform="translate(-98,-161)"> <path d="m 115.21411,185.24711 c -0.25602,0.0697 -0.47383,0.23836 -0.60547,0.46875 l -4.78864,8.49889 c -0.27443,0.47996 -0.10732,1.09153 0.37305,1.36523 0.47995,0.27443 1.09152,0.10732 1.36523,-0.37305 l 4.78864,-8.49889 c 0.27443,-0.47996 0.10732,-1.09153 -0.37305,-1.36523 -0.23052,-0.13145 -0.50384,-0.16587 -0.75976,-0.0957 z" id="path13299" style="color:#000000;fill:#808b9b;fill-opacity:1;fill-rule:evenodd;stroke-linecap:round;stroke-linejoin:round;stroke-miterlimit:4.1"/> <path d="m 117.5752,184.63006 c -0.47681,-0.27805 -1.08874,-0.11721 -1.36719,0.35937 -0.27806,0.47681 -0.11721,1.08874 0.35937,1.36719 l 6.86692,3.74993 c 0.47732,0.27772 1.0894,0.11596 1.36718,-0.36133 0.27773,-0.47732 0.11596,-1.08939 -0.36132,-1.36718 z" id="path13301" style="color:#000000;fill:#808b9b;fill-opacity:1;fill-rule:evenodd;stroke-linecap:round;stroke-linejoin:round;stroke-miterlimit:4.1"/> <path d="m 131.42453,180.40422 c -0.4746,-0.28273 -1.08854,-0.12706 -1.37109,0.34765 l -5.09771,7.77811 c -0.28272,0.47461 -0.12705,1.08855 0.34766,1.37109 0.4746,0.28273 1.08854,0.12706 1.37109,-0.34765 l 5.09771,-7.77811 c 0.28272,-0.4746 0.12705,-1.08855 -0.34766,-1.37109 z" id="path13303" style="color:#000000;fill:#808b9b;fill-opacity:1;fill-rule:evenodd;stroke-linecap:round;stroke-linejoin:round;stroke-miterlimit:4.1"/> <path d="m 103,165.02344 c -0.55228,0 -1,0.44772 -1,1 V 204 c 6e-5,0.55226 0.44774,0.99994 1,1 h 15 c 0.55228,0 1,-0.44772 1,-1 0,-0.55228 -0.44772,-1 -1,-1 h -14 v -36.97656 c 0,-0.55228 -0.44772,-1 -1,-1 z M 122.16621,203 c -0.55229,0 -1,0.44772 -1,1 0,0.55228 0.44771,1 1,1 H 141 c 0.55228,0 1,-0.44772 1,-1 0,-0.55228 -0.44772,-1 -1,-1 z" id="path10364" style="color:#000000;fill:#808b9b;fill-opacity:1;fill-rule:evenodd;stroke-linecap:round;stroke-linejoin:round;stroke-miterlimit:4.1;-inkscape-stroke:none"/> <path d="m 112,196 a 2,2 0 0 1 -2,2 2,2 0 0 1 -2,-2 2,2 0 0 1 2,-2 2,2 0 0 1 2,2 z" id="path12623" style="color:#000000;fill:#e7e7e7;fill-opacity:1;fill-rule:evenodd;stroke-width:2;stroke-linecap:round;stroke-linejoin:round;stroke-miterlimit:4.1"/> <path d="m 118,185 a 2,2 0 0 1 -2,2 2,2 0 0 1 -2,-2 2,2 0 0 1 2,-2 2,2 0 0 1 2,2 z" id="path12617" style="color:#000000;fill:#e7e7e7;fill-opacity:1;fill-rule:evenodd;stroke-width:2;stroke-linecap:round;stroke-linejoin:round;stroke-miterlimit:4.1"/> <path d="m 126.91687,189.5509 a 2,2 0 0 1 -2,2 2,2 0 0 1 -2,-2 2,2 0 0 1 2,-2 2,2 0 0 1 2,2 z" id="path12611" style="color:#000000;fill:#e7e7e7;fill-opacity:1;fill-rule:evenodd;stroke-width:2;stroke-linecap:round;stroke-linejoin:round;stroke-miterlimit:4.1"/> <path d="m 141,174 c 0,4.41826 -3.58171,7.99998 -7.99998,7.99998 -4.41828,0 -8,-3.58172 -8,-7.99998 0,-4.41827 3.58172,-8 8,-8 4.41827,0 7.99998,3.58173 7.99998,8 z" id="path12563" style="fill:#f2a50c;fill-opacity:1;fill-rule:evenodd;stroke:none;stroke-width:2;stroke-linecap:round;stroke-linejoin:round;stroke-miterlimit:4.1;stroke-opacity:1"/> <path d="M 131.85156,166.08203 C 127.97734,166.63895 125,169.97166 125,174 c 0,3.46698 2.20655,6.41695 5.29102,7.52734 3.87129,-0.55948 6.84765,-3.88976 6.84765,-7.91601 0,-3.46571 -2.20443,-6.41795 -5.28711,-7.5293 z" id="path19306" style="fill:#f7c63d;fill-opacity:1;fill-rule:evenodd;stroke:none;stroke-width:2;stroke-linecap:round;stroke-linejoin:round;stroke-miterlimit:4.1;stroke-opacity:1"/> <path d="m 133,167.73828 a 1.0057675,0.9942576 0 0 0 -1.00586,0.99609 v 0.86328 c -1.09065,0.39442 -1.89258,1.40627 -1.89258,2.60938 0,1.55136 1.33186,2.78711 2.89844,2.78711 0.52508,0 0.88867,0.36923 0.88867,0.79883 0,0.42962 -0.3636,0.79882 -0.88867,0.79882 -0.52507,0 -0.88672,-0.3692 -0.88672,-0.79882 a 1.0057675,0.9942576 0 0 0 -1.00586,-0.99414 1.0057675,0.9942576 0 0 0 -1.00586,0.99414 c 0,1.20312 0.80193,2.21497 1.89258,2.60937 v 0.86328 a 1.0057675,0.9942576 0 0 0 1.00586,0.9961 1.0057675,0.9942576 0 0 0 1.00586,-0.9961 v -0.86328 c 1.09065,-0.3944 1.89453,-1.40625 1.89453,-2.60937 0,-1.55135 -1.33381,-2.78711 -2.90039,-2.78711 -0.52508,0 -0.88672,-0.3692 -0.88672,-0.79883 0,-0.42961 0.36163,-0.79883 0.88672,-0.79883 0.52508,0 0.88867,0.36922 0.88867,0.79883 a 1.0057675,0.9942576 0 0 0 1.00586,0.99414 1.0057675,0.9942576 0 0 0 1.00586,-0.99414 c 0,-1.20312 -0.80388,-2.21497 -1.89453,-2.60938 v -0.86328 A 1.0057675,0.9942576 0 0 0 133,167.73828 Z" id="path12565" style="color:#000000;fill:#808b9b;fill-opacity:1;fill-rule:evenodd;stroke:none;stroke-width:0.999996;stroke-linecap:round;stroke-linejoin:round;stroke-miterlimit:4.1;stroke-opacity:1"/> <path d="m 127,200 h 5 v -5 h -5 z" id="path12780" style="color:#000000;fill:#ff5576;fill-opacity:1;fill-rule:evenodd;stroke-width:2;stroke-linecap:round;stroke-linejoin:round;stroke-miterlimit:4.1"/> <path d="m 136,198 a 1,1 0 0 0 -1,1 1,1 0 0 0 1,1 h 5 a 1,1 0 0 0 1,-1 1,1 0 0 0 -1,-1 z" id="path12454" style="color:#000000;fill:#808b9b;fill-opacity:1;fill-rule:evenodd;stroke-linecap:round;stroke-linejoin:round;stroke-miterlimit:4.1"/> <path d="m 136,195 a 1,1 0 0 0 -1,1 1,1 0 0 0 1,1 h 3 a 1,1 0 0 0 1,-1 1,1 0 0 0 -1,-1 z" id="path12448" style="color:#000000;fill:#808b9b;fill-opacity:1;fill-rule:evenodd;stroke-linecap:round;stroke-linejoin:round;stroke-miterlimit:4.1"/> <path d="m 106.94336,168 a 1,1 0 0 0 -1,1 1,1 0 0 0 1,1 H 115 a 1,1 0 0 0 1,-1 1,1 0 0 0 -1,-1 z" id="path12436" style="color:#000000;fill:#808b9b;fill-opacity:1;fill-rule:evenodd;stroke-linecap:round;stroke-linejoin:round;stroke-miterlimit:4.1"/> <path d="m 107.08789,165 a 1,1 0 0 0 -1,1 1,1 0 0 0 1,1 h 4.66016 a 1,1 0 0 0 1,-1 1,1 0 0 0 -1,-1 z" id="path12430" style="color:#000000;fill:#808b9b;fill-opacity:1;fill-rule:evenodd;stroke-linecap:round;stroke-linejoin:round;stroke-miterlimit:4.1"/> <path d="m 107.08789,171 a 1,1 0 0 0 -1,1 1,1 0 0 0 1,1 h 10.875 a 1,1 0 0 0 1,-1 1,1 0 0 0 -1,-1 z" id="path12442" style="color:#000000;fill:#808b9b;fill-opacity:1;fill-rule:evenodd;stroke-linecap:round;stroke-linejoin:round;stroke-miterlimit:4.1"/> </g> </g>
</svg>